<svg viewBox="0 0 40 40" xmlns="http://www.w3.org/2000/svg">
  <path
    d="M20 0c11 0 20 9 20 20 0 9.9-7.2 18.1-16.7 19.8l-.085-.067c.062-.01.123-.022.185-.033V25.6h4.4l.9-5.6h-5.3v-3.9c0-1.6.6-2.8 3-2.8H29V8.2c-1.4-.2-3-.4-4.4-.4-4.6 0-7.8 2.8-7.8 7.8V20h-5v5.6h5v14.1l.018.003-.118.097C7.2 38.1 0 29.9 0 20 0 9 9 0 20 0z"
    fill="currentColor"
  />
  <path
    d="m27.8 25.6.9-5.6h-5.3v-3.9c0-1.6.6-2.8 3-2.8H29V8.2c-1.4-.2-3-.4-4.4-.4-4.6 0-7.8 2.8-7.8 7.8V20h-5v5.6h5v14.1c1.1.2 2.2.3 3.3.3 1.1 0 2.2-.1 3.3-.3V25.6h4.4z"
    fill="transparent"
  />
</svg>
